<svg width="43" height="44" viewBox="0 0 43 44" fill="none" xmlns="http://www.w3.org/2000/svg">
<path d="M6.58949 0.972604C6.93766 0.970358 7.28584 0.968112 7.64456 0.965799C8.7949 0.959812 9.94509 0.961078 11.0954 0.962937C11.8954 0.961445 12.6954 0.959709 13.4954 0.95774C15.1721 0.954815 16.8486 0.955612 18.5253 0.958863C20.6736 0.962623 22.8218 0.956009 24.9701 0.946455C26.6222 0.940451 28.2743 0.940541 29.9264 0.94241C30.7184 0.94246 31.5105 0.940477 32.3026 0.936424C33.4102 0.931555 34.5175 0.935032 35.6252 0.940648C35.9522 0.937484 36.2791 0.93432 36.616 0.931061C38.4819 0.950865 39.6475 1.10746 41.0898 2.41376C42.4029 3.90069 42.2189 5.61655 42.2193 7.49845C42.2251 8.01913 42.2251 8.01913 42.2309 8.55033C42.2419 9.69751 42.2454 10.8445 42.2479 11.9918C42.2519 12.7902 42.256 13.5886 42.2602 14.3871C42.2676 16.0609 42.2707 17.7348 42.2714 19.4086C42.2732 21.5512 42.29 23.6933 42.3105 25.8357C42.3239 27.485 42.3269 29.1342 42.3271 30.7836C42.3289 31.5733 42.3344 32.363 42.3437 33.1527C42.3558 34.2589 42.3532 35.3641 42.3472 36.4702C42.3539 36.7948 42.3606 37.1194 42.3675 37.4539C42.3354 39.5855 41.8295 40.659 40.3362 42.1847C39.4328 42.9639 38.8598 43.0328 37.6944 43.039C37.243 43.0426 37.243 43.0426 36.7825 43.0461C36.4513 43.047 36.1202 43.0479 35.779 43.0488C35.431 43.051 35.0829 43.0531 34.7243 43.0553C33.5687 43.0618 32.4131 43.0656 31.2575 43.0689C30.8634 43.0702 30.4693 43.0715 30.0633 43.0729C27.9775 43.0797 25.8917 43.0844 23.8058 43.0875C21.6498 43.0911 19.4938 43.1024 17.3378 43.1153C15.6815 43.1239 14.0252 43.1266 12.3689 43.1278C11.5741 43.1294 10.7793 43.1332 9.98447 43.1393C8.87203 43.1472 7.75987 43.147 6.64741 43.1447C6.15466 43.151 6.15466 43.151 5.65196 43.1574C3.78084 43.1434 2.6129 42.994 1.16719 41.6819C-0.151424 40.1925 0.0447849 38.4723 0.0532622 36.5869C0.0510163 36.2387 0.0487704 35.8905 0.0464565 35.5318C0.0404702 34.3815 0.0417356 33.2313 0.0435954 32.0809C0.042103 31.2809 0.040367 30.4809 0.0383975 29.6809C0.0354732 28.0043 0.0362698 26.3277 0.0395209 24.6511C0.0432809 22.5028 0.0366669 20.3546 0.0271128 18.2062C0.0211088 16.5542 0.0211992 14.9021 0.0230677 13.25C0.0231179 12.4579 0.0211353 11.6659 0.0170821 10.8738C0.0122126 9.76615 0.0156903 8.65882 0.0213057 7.55118C0.018142 7.22422 0.0149783 6.89726 0.0117188 6.56039C0.0315226 4.69446 0.188118 3.52892 1.49442 2.08653C2.98385 0.767918 4.70411 0.964127 6.58949 0.972604ZM3.78507 5.03164C3.48952 5.91829 3.41621 6.42985 3.41408 7.34006C3.41268 7.60935 3.41128 7.87864 3.40985 8.15609C3.40999 8.45038 3.41014 8.74466 3.4103 9.04786C3.4092 9.35869 3.4081 9.66952 3.40697 9.98976C3.40385 11.0193 3.40322 12.0488 3.40287 13.0783C3.40181 13.7928 3.40071 14.5072 3.39957 15.2217C3.3976 16.7201 3.397 18.2185 3.39719 19.7169C3.39723 21.6386 3.39276 23.5602 3.38712 25.4819C3.38349 26.9576 3.38282 28.4334 3.38299 29.9092C3.38261 30.6178 3.38116 31.3263 3.37863 32.0349C3.37543 33.0251 3.37636 34.0153 3.37834 35.0055C3.3765 35.2991 3.37466 35.5928 3.37277 35.8953C3.37414 36.1655 3.37551 36.4357 3.37693 36.7141C3.37675 36.9481 3.37657 37.1821 3.37639 37.4232C3.47388 38.2123 3.67892 38.7253 4.1123 39.3913C4.99895 39.6869 5.5105 39.7602 6.42072 39.7623C6.69001 39.7637 6.9593 39.7651 7.23675 39.7665C7.53103 39.7664 7.82532 39.7662 8.12852 39.7661C8.59476 39.7677 8.59476 39.7677 9.07042 39.7694C10.0999 39.7725 11.1294 39.7732 12.159 39.7735C12.8734 39.7746 13.5879 39.7757 14.3023 39.7768C15.8007 39.7788 17.2991 39.7794 18.7975 39.7792C20.7192 39.7791 22.6409 39.7836 24.5625 39.7892C26.0383 39.7929 27.5141 39.7935 28.9898 39.7934C29.6984 39.7938 30.407 39.7952 31.1156 39.7977C32.1058 39.8009 33.0959 39.8 34.0862 39.798C34.3798 39.7999 34.6734 39.8017 34.9759 39.8036C35.2461 39.8022 35.5164 39.8009 35.7948 39.7994C36.0288 39.7996 36.2628 39.7998 36.5039 39.8C37.2929 39.7025 37.806 39.4975 38.472 39.0641C38.7675 38.1774 38.8408 37.6659 38.843 36.7557C38.8443 36.4864 38.8457 36.2171 38.8472 35.9396C38.847 35.6453 38.8469 35.3511 38.8467 35.0479C38.8478 34.737 38.8489 34.4262 38.8501 34.1059C38.8532 33.0764 38.8538 32.0469 38.8542 31.0174C38.8552 30.303 38.8563 29.5885 38.8575 28.874C38.8594 27.3756 38.86 25.8772 38.8598 24.3788C38.8598 22.4572 38.8643 20.5355 38.8699 18.6138C38.8735 17.1381 38.8742 15.6623 38.874 14.1865C38.8744 13.478 38.8759 12.7694 38.8784 12.0608C38.8816 11.0706 38.8807 10.0804 38.8787 9.0902C38.8805 8.79658 38.8824 8.50296 38.8843 8.20044C38.8829 7.93023 38.8815 7.66001 38.8801 7.38161C38.8803 7.1476 38.8805 6.9136 38.8806 6.6725C38.7831 5.88345 38.5781 5.37042 38.1447 4.70441C37.2581 4.40886 36.7465 4.33555 35.8363 4.33342C35.567 4.33202 35.2977 4.33063 35.0203 4.32919C34.726 4.32934 34.4317 4.32948 34.1285 4.32964C33.8177 4.32854 33.5069 4.32744 33.1866 4.32631C32.1571 4.32319 31.1276 4.32256 30.0981 4.32221C29.3836 4.32116 28.6692 4.32006 27.9547 4.31891C26.4563 4.31695 24.9579 4.31634 23.4595 4.31654C21.5378 4.31657 19.6162 4.3121 17.6945 4.30647C16.2187 4.30283 14.743 4.30216 13.2672 4.30234C12.5586 4.30195 11.85 4.3005 11.1414 4.29797C10.1512 4.29477 9.16108 4.29571 8.17086 4.29768C7.73043 4.29492 7.73043 4.29492 7.2811 4.29211C7.01089 4.29348 6.74067 4.29485 6.46227 4.29627C6.22826 4.29609 5.99426 4.29591 5.75316 4.29573C4.96411 4.39322 4.45108 4.59826 3.78507 5.03164Z" fill="#F84C35"/>
<path d="M30.0931 18.3651C31.3786 19.1507 31.9331 20.1528 32.3641 21.5801C32.6625 22.8313 32.6767 24.035 32.6609 25.3159C32.6601 25.5511 32.6594 25.7863 32.6586 26.0286C32.6556 26.7721 32.6489 27.5155 32.642 28.2589C32.6393 28.7662 32.6369 29.2735 32.6347 29.7807C32.6293 31.0175 32.6187 32.2541 32.6085 33.4909C31.0147 33.4909 29.421 33.4909 27.7789 33.4909C27.7639 32.5649 27.7639 32.5649 27.7485 31.6201C27.7361 31.0171 27.7224 30.4142 27.7085 29.8112C27.6996 29.3946 27.6921 28.978 27.686 28.5614C27.6769 27.9598 27.6629 27.3585 27.6479 26.757C27.6462 26.5731 27.6445 26.3891 27.6427 26.1995C27.6045 24.925 27.3867 23.4396 26.4374 22.4903C25.0191 22.3455 25.0191 22.3455 23.7393 22.8266C22.6329 23.8207 22.7154 25.4936 22.6159 26.9009C22.5692 27.9014 22.5382 28.9011 22.5134 29.9023C22.503 30.2485 22.4927 30.5947 22.482 30.9514C22.4569 31.7979 22.4346 32.6444 22.4128 33.4909C20.9076 33.4909 19.4024 33.4909 17.8516 33.4909C17.8516 28.4441 17.8516 23.3972 17.8516 18.1974C19.3568 18.1974 20.862 18.1974 22.4128 18.1974C22.5013 18.6401 22.5899 19.0828 22.6811 19.5389C22.9301 19.3231 23.1791 19.1073 23.4357 18.8849C25.1204 17.4248 28.1137 17.4633 30.0931 18.3651Z" fill="#F84C35"/>
<path d="M10.0664 18.1973C11.7487 18.1973 13.431 18.1973 15.1643 18.1973C15.1643 23.2442 15.1643 28.2911 15.1643 33.4909C13.482 33.4909 11.7997 33.4909 10.0664 33.4909C10.0664 28.444 10.0664 23.3971 10.0664 18.1973Z" fill="#F84C35"/>
<path d="M13.8239 10.6848C14.5941 11.1661 15.029 11.485 15.4338 12.2946C15.549 14.6762 15.549 14.6762 14.8972 15.5143C13.8397 16.3602 13.0111 16.4621 11.6775 16.3192C10.9292 15.9866 10.4852 15.7063 9.98378 15.0615C9.7074 14.1319 9.64062 13.2468 9.79932 12.2946C10.8626 10.6287 11.9392 10.4406 13.8239 10.6848Z" fill="#F84C35"/>
</svg>
